<?xml version="1.0" encoding="UTF-8"?>
<svg version="1.1" xmlns="http://www.w3.org/2000/svg" width="1536" height="1024">
<path d="M0 0 C506.88 0 1013.76 0 1536 0 C1536 337.92 1536 675.84 1536 1024 C1029.12 1024 522.24 1024 0 1024 C0 686.08 0 348.16 0 0 Z " fill="#BC6D4B" transform="translate(0,0)"/>
<path d="M0 0 C1.61924738 -0.00402045 3.23849377 -0.00845963 4.85773897 -0.01327956 C9.29276043 -0.02518648 13.72777104 -0.0308798 18.16280532 -0.03546071 C22.95254327 -0.04143941 27.74226841 -0.05304367 32.53199768 -0.06375122 C44.0939088 -0.08822601 55.65582414 -0.10289646 67.21775317 -0.11581129 C70.48755912 -0.11952724 73.75736465 -0.12350015 77.02717018 -0.12756395 C97.3644099 -0.15280781 117.70165036 -0.17484485 138.03890228 -0.1872921 C142.74529523 -0.19022144 147.45168816 -0.19318315 152.15808105 -0.19619751 C153.32772662 -0.19694356 154.49737218 -0.19768961 155.70246154 -0.19845827 C174.62226909 -0.21109419 193.54198229 -0.2442963 212.4617458 -0.28599934 C231.91983557 -0.32853458 251.3778772 -0.35200058 270.83601332 -0.35721266 C281.74729213 -0.36061397 292.65842357 -0.37221703 303.56965637 -0.4053154 C312.86827096 -0.43347695 322.16670794 -0.44424526 331.46536183 -0.43311994 C336.19968649 -0.42797392 340.93364019 -0.43055177 345.66790962 -0.45558548 C390.51400652 -0.67979795 431.77325012 7.72350193 464.99645996 39.9703064 C484.05385045 59.17621147 496.42099302 84.40803778 500.09020996 111.15390015 C500.34777966 112.64031588 500.34777966 112.64031588 500.61055279 114.15676022 C501.33589607 119.27063232 501.23827606 124.39815349 501.23738098 129.55345154 C501.24105767 130.69547183 501.24473436 131.83749212 501.24852246 133.01411909 C501.25952884 136.83814249 501.26339806 140.66213869 501.26721191 144.48617554 C501.27295036 147.22980479 501.28011391 149.97343002 501.28712463 152.71705627 C501.30684581 160.95013321 501.31695196 169.18321129 501.32585242 177.41630593 C501.33024444 181.30311118 501.33560905 185.18991509 501.34084129 189.07671928 C501.35785295 202.01569492 501.37234237 214.95466973 501.37959003 227.89365482 C501.38149963 231.24806278 501.38342 234.60247073 501.38537598 237.95687866 C501.38585972 238.79050269 501.38634346 239.62412671 501.38684186 240.48301207 C501.39512435 253.95692153 501.4204313 267.4307417 501.45295665 280.90461225 C501.48615164 294.770194 501.50405017 308.63573059 501.50723428 322.50135225 C501.50938844 330.27313967 501.51797468 338.04479708 501.54369545 345.81654549 C501.56557358 352.44218796 501.57337015 359.06766885 501.56372867 365.69334335 C501.55923204 369.06433659 501.56304739 372.43473163 501.58049011 375.80572128 C501.6759295 395.36192423 500.44954007 414.50278257 493.84020996 433.09140015 C493.54138916 433.95144653 493.24256836 434.81149292 492.93469238 435.69760132 C481.06499675 468.71067291 455.31072269 493.22531436 424.09020996 508.15390015 C414.7843762 512.3170363 405.08781519 515.19746473 395.09020996 517.15390015 C393.8391748 517.40898393 393.8391748 517.40898393 392.56286621 517.66922092 C379.67907541 519.89483829 366.64773747 519.43877214 353.61755371 519.42514038 C350.83707714 519.42841444 348.05660957 519.43472677 345.27613831 519.440979 C339.31173202 519.45296261 333.34735234 519.45812864 327.38293457 519.4588604 C318.75308788 519.4601919 310.12330532 519.47535306 301.4934814 519.49435557 C287.47999652 519.52511893 273.46651001 519.5493238 259.45300293 519.56723022 C258.61614983 519.56830291 257.77929674 519.56937559 256.91708446 519.57048077 C247.56945994 519.58231446 238.22183477 519.592521 228.87420654 519.60092163 C225.47762043 519.60399614 222.08103432 519.60708483 218.68444824 519.61019897 C217.84619904 519.61096431 217.00794984 519.61172965 216.14429915 519.61251818 C202.17006639 519.6255967 188.19588056 519.65022495 174.22168255 519.68394238 C165.61134632 519.70422181 157.0011104 519.71452325 148.39075011 519.71195317 C142.49779185 519.7109186 136.60491307 519.72054692 130.71198255 519.7385922 C127.31268922 519.74863921 123.91357177 519.75376295 120.51426888 519.74582481 C116.82976626 519.73970887 113.1457628 519.75186948 109.46130371 519.76863098 C108.38719207 519.76241917 107.31308043 519.75620735 106.20641994 519.7498073 C98.08239746 519.81734758 93.33144197 521.66965944 87.34020996 527.27890015 C86.04856934 528.47386108 86.04856934 528.47386108 84.73083496 529.69296265 C83.42372559 530.91112671 83.42372559 530.91112671 82.09020996 532.15390015 C80.42662953 533.65732222 78.76000614 535.1573847 77.09020996 536.65390015 C76.26520996 537.39640015 75.44020996 538.13890015 74.59020996 538.90390015 C72.09020996 541.15390015 69.59020996 543.40390015 67.09020996 545.65390015 C66.25876465 546.40284546 65.42731934 547.15179077 64.57067871 547.9234314 C62.97172351 549.36123206 61.37033982 550.79633888 59.76599121 552.2281189 C54.05141207 557.33818057 48.43394776 562.54557404 42.83630371 567.7828064 C37.13372609 573.11821605 31.40429664 578.42368938 25.65759277 583.71151733 C24.6018402 584.68307282 23.54650988 585.65508733 22.49157715 586.62753296 C12.67436838 595.67617737 12.67436838 595.67617737 8.27770996 599.46640015 C5.60149413 601.77562436 3.01026677 604.15996147 0.44177246 606.5874939 C-0.55245728 607.52564941 -0.55245728 607.52564941 -1.56677246 608.48275757 C-2.8962596 609.74063112 -4.22209691 611.00237626 -5.54382324 612.2684021 C-13.0554831 619.37376232 -18.53015665 621.54455691 -28.86682129 621.4312439 C-34.86837317 620.88424751 -38.47845054 618.5534321 -42.72229004 614.40390015 C-47.74907648 606.93553173 -49.05446037 599.33137565 -49.06750488 590.42953491 C-49.0725856 589.66791046 -49.07766632 588.90628601 -49.082901 588.12158203 C-49.09356979 586.4737874 -49.10220355 584.8259786 -49.10902023 583.17816353 C-49.12085378 580.56745573 -49.14031674 577.95691005 -49.16213989 575.3462677 C-49.22361497 567.92567347 -49.27781012 560.5050984 -49.31115723 553.08432007 C-49.33212607 548.53967245 -49.36744197 543.99532525 -49.41191483 539.45084953 C-49.42605166 537.72257971 -49.43479203 535.9942568 -49.43796921 534.26593208 C-49.44288959 531.84618888 -49.46607419 529.4272409 -49.49328613 527.00765991 C-49.49028 526.29837845 -49.48727386 525.58909698 -49.48417664 524.85832214 C-49.5610316 520.24590802 -50.42675838 517.04648724 -52.90979004 513.15390015 C-55.40251028 511.61857129 -57.63264879 510.43804627 -60.28479004 509.27890015 C-61.73749942 508.59734772 -63.18799901 507.91106707 -64.63635254 507.2203064 C-65.3585498 506.8775769 -66.08074707 506.53484741 -66.8248291 506.18173218 C-97.62480729 490.99813637 -122.2815716 463.60355596 -133.35119629 431.0562439 C-139.50834745 411.68564288 -140.34894053 392.92705842 -140.29797363 372.72470093 C-140.30039868 369.99590318 -140.30728526 367.26712045 -140.31390381 364.53833008 C-140.32714766 357.93665203 -140.3244053 351.3350771 -140.31566589 344.73339523 C-140.3088514 339.36022775 -140.30798876 333.98708888 -140.31123734 328.6139183 C-140.31169703 327.84503043 -140.31215673 327.07614256 -140.31263036 326.28395506 C-140.31358968 324.72125729 -140.31456232 323.15855953 -140.31554814 321.59586178 C-140.32407495 306.98887529 -140.31431124 292.38194555 -140.29814704 277.77496837 C-140.2847517 265.28422582 -140.28707076 252.79356697 -140.30090332 240.30282593 C-140.31701655 225.74614713 -140.32324562 211.18951793 -140.31406653 196.63283145 C-140.31311104 195.07572548 -140.31216792 193.51861951 -140.31123734 191.96151352 C-140.3105431 190.81277324 -140.3105431 190.81277324 -140.30983483 189.64082608 C-140.3072617 184.28493344 -140.31157952 178.92907267 -140.31867599 173.57318497 C-140.32715562 167.03046624 -140.32467717 160.48785524 -140.30883376 153.9451486 C-140.30103586 150.61695654 -140.2993706 147.28908861 -140.30778122 143.96087646 C-140.35011051 125.49470858 -140.0272442 106.92621146 -133.72229004 89.34140015 C-133.42040771 88.47378052 -133.11852539 87.60616089 -132.80749512 86.71224976 C-121.04679983 54.05906067 -95.41918541 27.72569402 -64.21447754 13.03671265 C-43.38782576 3.68656548 -22.74520022 0.00614649 0 0 Z " fill="#FEF9F4" transform="translate(586.9097900390625,211.84609985351563)"/>
<path d="M0 0 C1.2697532 -0.00445784 2.53950639 -0.00891569 3.84773695 -0.01350862 C5.2596891 -0.01341932 6.67164125 -0.01322947 8.08359337 -0.01294994 C9.58134697 -0.01624945 11.07909967 -0.0199752 12.57685125 -0.02409142 C16.69868193 -0.03410968 20.82049805 -0.03782794 24.94233918 -0.04048073 C29.38558906 -0.04438429 33.82882741 -0.05396259 38.27206993 -0.0626936 C49.00543221 -0.08245639 59.73879544 -0.09252391 70.47217137 -0.10142139 C75.52657925 -0.10580453 80.58098609 -0.11117126 85.63539314 -0.11641026 C102.43710742 -0.13342223 119.23882104 -0.14791651 136.0405426 -0.155159 C140.40070789 -0.15706889 144.76087317 -0.15898923 149.12103844 -0.16094494 C150.2047371 -0.16142868 151.28843577 -0.16191242 152.40497379 -0.16241082 C169.96108232 -0.17071153 187.51712272 -0.1960493 205.07320149 -0.22852562 C223.09707558 -0.26159551 241.12091503 -0.27960769 259.14481962 -0.28280324 C269.26481054 -0.28496838 279.38470211 -0.29371771 289.50466347 -0.31926441 C298.12309604 -0.34097042 306.74140512 -0.3490223 315.35986193 -0.33929763 C319.7560536 -0.33475267 324.15199047 -0.33665052 328.5481472 -0.35605907 C332.57641009 -0.37368959 336.60423229 -0.3726941 340.63249986 -0.35716178 C342.08612058 -0.35478553 343.53977181 -0.35911022 344.99334593 -0.37099043 C353.8703658 -0.43902184 362.79534433 -0.33990254 369.78219283 5.84325331 C373.92782037 10.24557804 375.66116902 14.52378518 376.10101891 20.57172108 C375.59719759 27.75117483 373.5881448 31.95960059 368.99555016 37.33734608 C361.86936536 43.30828415 353.94652182 42.56140729 345.09236717 42.52190113 C343.57409679 42.526076 342.05582952 42.53155436 340.53756803 42.53822094 C336.37298689 42.55267419 332.20860368 42.54843123 328.04401171 42.54105413 C323.54971498 42.53632448 319.05546119 42.54883049 314.56117821 42.55907154 C305.75955694 42.57626866 296.95800704 42.57709768 288.15637333 42.57185864 C281.00271081 42.56781753 273.84906938 42.56925979 266.69540787 42.5746069 C265.67733314 42.57535532 264.65925842 42.57610374 263.61033295 42.57687484 C261.54213353 42.57840631 259.47393412 42.57994466 257.40573471 42.58148981 C238.01020915 42.59521807 218.61472393 42.58977479 199.21919929 42.5783046 C181.47439361 42.56837112 163.72969217 42.5813143 145.98490257 42.60523879 C127.76431152 42.6296197 109.54376905 42.63924018 91.32316202 42.63258606 C81.09374455 42.6290917 70.86440728 42.63134028 60.63500214 42.64883709 C51.92727309 42.66354642 43.21968071 42.66421107 34.51195437 42.64676618 C30.06941946 42.63824349 25.62712884 42.63613755 21.18460655 42.65141773 C17.11646065 42.66523701 13.04876896 42.66053747 8.98064952 42.6411785 C7.51033718 42.63740968 6.03998869 42.64036587 4.56970847 42.65079015 C-11.21459409 42.75472806 -11.21459409 42.75472806 -17.65675205 36.72236055 C-22.80399259 30.97874841 -23.62378792 25.60290867 -23.44976234 18.13812733 C-22.89480091 12.59572023 -21.31883945 8.95371698 -17.02007484 5.34906483 C-11.19982635 1.29310912 -7.0959245 0.01155032 0 0 Z " fill="#D68631" transform="translate(591.1489810943604,455.86577892303467)"/>
<path d="M0 0 C1.93914392 -0.00853686 1.93914392 -0.00853686 3.91746247 -0.01724619 C5.36055755 -0.01853888 6.80365273 -0.01972689 8.24674797 -0.02082157 C9.77322516 -0.02555142 11.2997011 -0.03070217 12.82617557 -0.03623921 C17.03200302 -0.05016231 21.23782181 -0.0577337 25.44366646 -0.0642122 C29.04840024 -0.07057867 32.65311975 -0.08064941 36.25784464 -0.09077286 C48.13528255 -0.12411331 60.01272915 -0.14562116 71.89019853 -0.16397271 C74.98244791 -0.16876695 78.07469693 -0.17375036 81.16694593 -0.17877793 C100.3643624 -0.20974796 119.56178186 -0.23643681 138.75921631 -0.25319672 C143.20687299 -0.2571463 147.65452963 -0.26114928 152.1021862 -0.2652216 C153.20764698 -0.26622996 154.31310777 -0.26723832 155.45206736 -0.26827724 C173.36137663 -0.28528551 191.27054775 -0.32639586 209.17978956 -0.37724458 C227.56183931 -0.42900691 245.94381799 -0.45813715 264.32594001 -0.4653936 C274.64885603 -0.47005756 284.97154582 -0.48482675 295.29438972 -0.5251379 C304.08565167 -0.55942623 312.87664658 -0.57338205 321.66797157 -0.56071376 C326.15326416 -0.5548841 330.63799191 -0.55877217 335.12319946 -0.5888834 C339.23180451 -0.61624112 343.3394433 -0.61575152 347.4480698 -0.59337295 C348.93199398 -0.5901498 350.4159828 -0.59701993 351.89979948 -0.61517017 C360.80808705 -0.71750537 367.17855335 -0.1248784 373.86195183 6.1398077 C377.76262894 10.99827483 379.69366864 16.74780944 379.27601433 22.97965145 C378.03564203 29.45065032 374.78459442 33.71728152 369.83851433 37.9132452 C365.25511399 40.75748968 360.74080198 41.39011825 355.43005371 41.39428329 C353.50715049 41.40303158 353.50715049 41.40303158 351.54540074 41.41195661 C350.13009412 41.40832372 348.71478799 41.40449937 347.29948235 41.40050411 C345.7903267 41.40352536 344.28117258 41.40741471 342.77202117 41.41209668 C338.62801977 41.42238891 334.48410477 41.42019174 330.34009624 41.41591609 C325.86964974 41.41345108 321.39922418 41.42246023 316.92878532 41.42995358 C308.17182377 41.44270895 299.41489287 41.44449321 290.65792359 41.44215331 C283.54047294 41.4403709 276.42303159 41.44211814 269.30558205 41.44637775 C267.78659281 41.44727054 267.78659281 41.44727054 266.23691692 41.44818136 C264.17974997 41.4493931 262.12258303 41.45060723 260.06541608 41.45182373 C240.76909694 41.46270254 221.47279528 41.46053519 202.17647515 41.45443889 C184.52215534 41.44926962 166.86789071 41.46052485 149.21358182 41.47953711 C131.0879491 41.49890737 112.9623425 41.50717292 94.83669937 41.50341386 C84.65981727 41.50150055 74.48298214 41.50400193 64.30610847 41.5181284 C55.64229406 41.53003282 46.97855552 41.53145763 38.31474008 41.51933823 C33.89452634 41.51344291 29.47445145 41.51236813 25.0542469 41.52434063 C21.00648691 41.5351769 16.95898207 41.53212303 12.91123413 41.51807895 C11.44829306 41.51542579 9.98533214 41.51781798 8.52241053 41.52581481 C-7.87936495 41.60923689 -7.87936495 41.60923689 -14.16148567 36.4913702 C-14.6075013 35.92160458 -15.05351692 35.35183895 -15.51304817 34.7648077 C-15.97453255 34.20019833 -16.43601692 33.63558895 -16.91148567 33.0538702 C-20.76408022 27.04185961 -20.85115981 21.09038944 -20.13804817 14.1398077 C-18.5908328 8.48830244 -15.65629966 5.22640946 -10.82164192 2.04996395 C-7.15641718 0.06853155 -4.08766426 0.01047527 0 0 Z " fill="#C98633" transform="translate(588.1380481719971,348.86019229888916)"/>
<path d="M0 0 C0.91364104 -0.00382555 1.82728209 -0.00765109 2.76860923 -0.01159257 C5.81916186 -0.02188186 8.86952483 -0.01793813 11.92008972 -0.01396179 C14.11176731 -0.01831055 16.30344338 -0.02349425 18.49511719 -0.02944946 C24.44148261 -0.04283397 30.38778445 -0.04341866 36.334162 -0.04088616 C41.30174701 -0.03981594 46.2693192 -0.0447012 51.23690146 -0.04949158 C63.6291231 -0.06121926 76.02131341 -0.0603628 88.41353693 -0.05393478 C99.16020597 -0.04876819 109.90678429 -0.06001562 120.65343539 -0.07903299 C131.70297589 -0.09843557 142.75247144 -0.10637201 153.80202883 -0.10290974 C159.99950908 -0.10109837 166.19690627 -0.10371853 172.39437294 -0.11762428 C178.22452891 -0.13021639 184.05450366 -0.12824527 189.88465691 -0.11521339 C192.02032661 -0.11285098 194.15600911 -0.11557023 196.29166412 -0.12383652 C199.21540335 -0.13433414 202.13853785 -0.12617896 205.06225586 -0.11352539 C206.31875961 -0.12458682 206.31875961 -0.12458682 207.60064727 -0.13587171 C214.70811888 -0.07151443 222.26908607 1.09250323 228.09660339 5.44819641 C232.34924554 10.00459871 234.46752539 13.97399442 235.15910339 20.19819641 C234.71374738 27.0809712 233.06486001 32.44661957 227.90910339 37.19819641 C221.99958128 42.18767317 215.88182645 42.55407906 208.48080444 42.52139282 C207.55914515 42.52521837 206.63748586 42.52904392 205.6878975 42.53298539 C202.60426658 42.54329154 199.5208227 42.53932772 196.43717957 42.53535461 C194.22432279 42.53970244 192.01146753 42.54488583 189.7986145 42.55084229 C183.7902757 42.5642369 177.7819998 42.56481035 171.77364898 42.56227899 C166.75631336 42.56120944 161.73899047 42.56609232 156.72165757 42.57088441 C144.20611227 42.58261602 131.69059748 42.58175363 119.17505202 42.5753276 C108.31771327 42.57016087 97.4604643 42.58140813 86.6031433 42.60042582 C75.44403298 42.61982161 64.28495533 42.6277659 53.1258257 42.62430257 C46.86520556 42.62249022 40.60466762 42.62512102 34.3440609 42.63901711 C28.45482601 42.65159953 22.56577062 42.64964723 16.67653847 42.63660622 C14.51787378 42.63424169 12.35919645 42.63697067 10.20054626 42.64522934 C7.2479412 42.65570892 4.29593706 42.64758611 1.34335327 42.63491821 C0.49430725 42.6422925 -0.35473878 42.64966678 -1.22951347 42.65726453 C-8.2172111 42.59443329 -14.95726724 41.28194454 -20.65339661 37.01069641 C-25.55995973 31.87048743 -26.47356662 27.76208955 -26.77839661 20.82319641 C-26.59434346 13.19813763 -24.17188486 9.15418466 -18.90339661 3.88569641 C-12.88509097 0.16007864 -6.87876598 -0.03078905 0 0 Z " fill="#E17F2C" transform="translate(594.2783966064453,563.7393035888672)"/>
<path d="M0 0 C9.16309766 -0.04660734 18.3261537 -0.08201209 27.4893446 -0.10362434 C31.74546218 -0.11400391 36.00149788 -0.12805485 40.25756836 -0.15087891 C44.37488406 -0.17281741 48.49212165 -0.18461228 52.60949135 -0.18975449 C54.17014099 -0.19341294 55.73078699 -0.20055534 57.29140282 -0.21146011 C65.70148474 -0.26781861 73.8113563 0.00718386 82.11982727 1.52053833 C86.17961966 2.196371 90.23819033 2.4306698 94.34375 2.65625 C97.19612262 3.02538057 99.3560855 3.88849344 102 5 C103.97118318 5.53060113 105.95108964 6.02960167 107.9375 6.5 C114.14144702 7.9729371 119.81537252 9.77333002 125.5 12.6875 C128.93467915 14.44577992 132.37078544 16.18711154 135.85546875 17.84375 C136.49355469 18.15094971 137.13164063 18.45814941 137.7890625 18.7746582 C139.6107629 19.65060185 141.43616574 20.51883289 143.26171875 21.38671875 C146 23 146 23 147 26 C147.99 25.67 148.98 25.34 150 25 C150.70125 25.9075 151.4025 26.815 152.125 27.75 C154.71246866 30.87104271 157.59010435 32.79777573 161 35 C162.70779973 36.62449243 164.37550757 38.29220027 166 40 C166.804375 40.804375 167.60875 41.60875 168.4375 42.4375 C169.283125 43.283125 170.12875 44.12875 171 45 C171.54398438 45.50917969 172.08796875 46.01835937 172.6484375 46.54296875 C174.1532639 47.97361357 175.58209114 49.48316727 177 51 C177 51.99 177 52.98 177 54 C177.66 54 178.32 54 179 54 C179.12375 54.928125 179.12375 54.928125 179.25 55.875 C179.78648121 58.15723303 179.78648121 58.15723303 181.875 59 C182.57625 59.33 183.2775 59.66 184 60 C186.90389379 63.31873576 187 64.6720911 187 69 C187.66 69 188.32 69 189 69 C190.33333333 71.66666667 191.66666667 74.33333333 193 77 C193.39445312 77.70640625 193.78890625 78.4128125 194.1953125 79.140625 C194.46085937 79.75421875 194.72640625 80.3678125 195 81 C194.67 81.66 194.34 82.32 194 83 C194.66 83 195.32 83 196 83 C200.22181929 93.42563771 202.99084823 102.60021889 203.75390625 113.8125 C203.76692468 115.97479911 203.76692468 115.97479911 205 117 C205.06044901 120.09801155 205.02061522 123.18007003 204.9609375 126.27734375 C204.92806208 129.06627509 204.92665081 131.66639701 205.52734375 134.3984375 C206.25618003 138.41004878 205.82313844 142.32195956 205.5625 146.375 C205.11283532 154.42042906 204.88466828 162.44181413 204.875 170.5 C204.87056885 171.47243652 204.8661377 172.44487305 204.86157227 173.44677734 C204.86342529 174.36152832 204.86527832 175.2762793 204.8671875 176.21875 C204.86831543 177.02248047 204.86944336 177.82621094 204.87060547 178.65429688 C204.9409252 181.06230796 204.9409252 181.06230796 205.57080078 183.61132812 C206 186 206 186 205 189 C204.90842199 191.88511996 204.87403553 194.74563781 204.88647461 197.63061523 C204.88625557 198.95299698 204.88625557 198.95299698 204.8860321 200.30209351 C204.8867296 203.22095182 204.89451662 206.13974656 204.90234375 209.05859375 C204.90420913 211.08496567 204.90563247 213.11133804 204.90663147 215.13771057 C204.91045234 220.47748048 204.92027572 225.81722325 204.93133545 231.15698242 C204.94153935 236.58707311 204.94613207 242.01716812 204.95117188 247.44726562 C204.95997428 256.21840723 204.97232577 264.98953548 204.9888916 273.76066589 C204.99939509 279.33417371 204.99865338 284.90746158 204.98413086 290.48095703 C204.96812274 297.00093367 204.9565522 303.52090467 204.94818783 310.04089546 C204.94295174 313.98414334 204.93583332 317.92736987 204.92456055 321.87060547 C204.91372023 325.68773484 204.9077215 329.50484358 204.90512276 333.32198715 C204.90327253 334.77728476 204.89965958 336.23258122 204.89426994 337.68787003 C204.88704318 339.71784616 204.8865918 341.74784304 204.88647461 343.77783203 C204.88314369 345.51179733 204.88314369 345.51179733 204.87974548 347.28079224 C204.81358938 349.96656234 204.81358938 349.96656234 206 352 C205.76254282 353.61714222 205.52130352 355.23380918 205.26220703 356.84762573 C204.74040767 361.13091105 204.90076187 365.44575815 204.9375 369.75390625 C204.94128662 370.77298569 204.94507324 371.79206512 204.94897461 372.84202576 C204.96113617 376.08222795 204.97976254 379.3223388 205 382.5625 C205.02663939 386.83463316 205.04661081 391.10672108 205.0625 395.37890625 C205.07079834 396.35404678 205.07909668 397.32918732 205.08764648 398.33387756 C205.10449806 403.01674051 204.94944687 407.39144383 204 412 C203.84262256 413.49883278 203.695756 414.99883039 203.5625 416.5 C203.15631882 420.2431158 202.35303941 423.46706376 201 427 C200.49911476 428.33300103 199.99917106 429.66635611 199.5 431 C199.24089844 431.68320312 198.98179687 432.36640625 198.71484375 433.0703125 C198.1265191 434.65846757 197.58755834 436.26482108 197.0625 437.875 C196.1181474 440.65250764 195.11869939 443.38848339 194.0625 446.125 C193.74410156 446.95257812 193.42570312 447.78015625 193.09765625 448.6328125 C192 451 192 451 190.55859375 452.8671875 C188.82053719 455.06725417 188.82053719 455.06725417 187.66015625 458.26171875 C185.88193947 462.58913547 183.26486683 466.1113095 180.4375 469.8125 C179.91099854 470.50883545 179.38449707 471.2051709 178.84204102 471.92260742 C174.3292718 477.78466002 169.41543987 482.95449531 164 488 C162.50500504 489.47427909 161.04362204 490.95241232 159.625 492.5 C158 494 158 494 155.75 495.3125 C152.83378324 496.97583817 152.83378324 496.97583817 150.125 499.6875 C146.4892369 502.90219476 142.44831582 505.10750409 138.1875 507.375 C137.5167041 507.73295654 136.8459082 508.09091309 136.15478516 508.4597168 C131.27243641 511 131.27243641 511 129 511 C128.67 511.66 128.34 512.32 128 513 C126.67482644 513.36442273 125.33905658 513.69045781 124 514 C122.15927585 514.7956142 120.32665829 515.61010236 118.5 516.4375 C113.3730385 518.60899219 108.64678874 519.7809309 103.14174843 520.49655819 C100.23187086 520.96284442 97.58279129 521.67202364 94.76327515 522.51210022 C86.49168136 524.60655466 78.27018259 524.57344309 69.78759766 524.68139648 C67.94864155 524.71429539 66.10969633 524.7478075 64.27076149 524.78187466 C40.60973606 525.18493332 16.94201252 525.12815766 -6.72152758 525.10139394 C-12.66032853 525.09567301 -18.59912973 525.09476142 -24.53793292 525.09374207 C-36.26113213 525.09158078 -47.98432418 525.08500232 -59.70751953 525.07543945 C-71.06103481 525.06618807 -82.4145481 525.05914562 -93.76806641 525.05493164 C-94.47391096 525.05466892 -95.17975551 525.05440619 -95.90698929 525.05413551 C-99.44979973 525.05282999 -102.99261019 525.0515664 -106.53542066 525.05032361 C-135.69028503 525.04004255 -164.84514244 525.02242963 -194 525 C-194 524.34 -194 523.68 -194 523 C-194.5775 523.309375 -195.155 523.61875 -195.75 523.9375 C-198 525 -198 525 -199.9375 525.4375 C-203.80223634 526.491519 -206.39587832 528.23157744 -208.8671875 531.375 C-210.95648746 533.9464461 -212.9987689 535.74824731 -215.625 537.75 C-221.94623274 542.68933844 -227.95119927 547.95119927 -233.625 553.625 C-236.39661472 556.39661472 -239.33939524 558.91553995 -242.328125 561.44921875 C-244.10326363 562.91350467 -244.10326363 562.91350467 -245 565 C-245.99 565.33 -246.98 565.66 -248 566 C-249.36046999 567.63256399 -250.71886954 569.26690076 -252.06640625 570.91015625 C-254.34084307 573.36838594 -256.8120567 575.35947423 -259.4375 577.4375 C-263.64645051 580.77839016 -267.09713214 584.22885951 -270.515625 588.35546875 C-272.41176908 590.4561968 -274.53588918 591.63825455 -277 593 C-278.68097202 594.65223746 -280.34528031 596.32147139 -282 598 C-283.92834201 599.80333226 -285.86219989 601.59590584 -287.8125 603.375 C-288.60297729 604.09780151 -288.60297729 604.09780151 -289.40942383 604.83520508 C-292.92805977 608.04427415 -296.4693023 611.22280688 -300.09375 614.3125 C-301.45088153 615.51389513 -302.75943946 616.77112314 -304.03125 618.0625 C-309.85311657 623.79999169 -315.81646352 626.92906806 -324 628 C-327.32651421 627.51389047 -330.00478557 626.48464092 -333 625 C-333.99 624.67 -334.98 624.34 -336 624 C-336 623.34 -336 622.68 -336 622 C-336.598125 621.71125 -337.19625 621.4225 -337.8125 621.125 C-342.81609195 618.55172414 -342.81609195 618.55172414 -344 615 C-344.66 614.67 -345.32 614.34 -346 614 C-346 612.35 -346 610.7 -346 609 C-343.93933806 610.85459575 -342.66178116 612.54814777 -341.1875 614.9375 C-338.18184819 619.14541253 -334.88405892 621.37198036 -330 623 C-320.99921754 623.68427001 -314.3543334 623.00499904 -307.3125 617 C-305.86753879 615.6747562 -304.43090758 614.34040573 -303 613 C-301.5901518 611.71213866 -300.18025116 610.42433405 -298.76928711 609.13769531 C-296.17263832 606.76595311 -293.58683089 604.38243932 -291 602 C-288.9176895 600.08221774 -286.83418786 598.16574163 -284.75 596.25 C-283.83734375 595.40953125 -282.9246875 594.5690625 -281.984375 593.703125 C-279.72641108 591.6404612 -277.42966612 589.62690253 -275.12109375 587.62109375 C-271.09566687 584.10991587 -267.19424898 580.48109916 -263.3125 576.8125 C-261.9066183 575.48919194 -260.50036339 574.16628028 -259.09375 572.84375 C-258.05734375 571.86921875 -258.05734375 571.86921875 -257 570.875 C-252.5596963 566.71221528 -248.07747738 562.59484038 -243.59863281 558.47363281 C-241.9248998 556.93077202 -240.25501434 555.38383349 -238.5859375 553.8359375 C-233.48177882 549.10521827 -228.36962408 544.39597638 -223.09765625 539.8515625 C-221.39368738 538.34750059 -219.72168151 536.82199335 -218.05859375 535.2734375 C-217.27077515 534.54169312 -217.27077515 534.54169312 -216.46704102 533.79516602 C-215.43681572 532.83571835 -214.40973644 531.87287669 -213.38647461 530.90600586 C-207.84465631 525.75054527 -202.99173985 521.87911203 -195.26142025 521.86971474 C-194.28074674 521.86609039 -193.30007322 521.86246604 -192.28968233 521.85873187 C-191.20956064 521.85980012 -190.12943895 521.86086837 -189.0165863 521.86196899 C-187.8710779 521.85914771 -186.72556949 521.85632643 -185.5453487 521.85341966 C-182.36022413 521.84651294 -179.17513076 521.84404679 -175.98999989 521.84336853 C-172.55613176 521.84153 -169.12227626 521.83392326 -165.68841553 521.82688904 C-159.73312475 521.81535488 -153.77783681 521.80711447 -147.82253838 521.80076981 C-138.39535028 521.79043711 -128.96819738 521.76986864 -119.54103088 521.74765015 C-116.31364739 521.74016972 -113.08626374 521.73275596 -109.85888004 521.72536278 C-109.05218707 521.72351221 -108.2454941 521.72166165 -107.41435589 521.719755 C-98.22684291 521.69881882 -89.03932602 521.67999851 -79.85180664 521.66210938 C-79.01188075 521.66047119 -78.17195486 521.65883301 -77.30657668 521.65714519 C-63.72952797 521.63092388 -50.15247656 521.61224666 -36.57541334 521.59551747 C-22.61954662 521.57804482 -8.6637327 521.54913966 5.29209179 521.5106281 C13.88860392 521.4873269 22.48502988 521.47324247 31.08157384 521.47130047 C36.98827901 521.46917729 42.89489891 521.45613389 48.80156571 521.43482114 C52.200279 521.42289361 55.59868189 521.41722958 58.99743462 521.42153358 C73.31009229 521.43675288 86.98321006 521.03582434 101 518 C101.94451806 517.80219751 102.88903612 517.60439503 103.86217594 517.40059853 C105.91123238 516.95494103 107.91959858 516.44425035 109.9375 515.875 C110.66146973 515.67108643 111.38543945 515.46717285 112.13134766 515.25708008 C125.76270926 511.17234487 138.59995072 504.47346946 150 496 C150.82242187 495.39929688 151.64484375 494.79859375 152.4921875 494.1796875 C180.97894859 472.42781561 196.50307806 441.22537398 201.62794614 406.18402648 C202.83875648 395.82194563 202.54311002 385.33209537 202.50170898 374.91723633 C202.50329356 372.16651834 202.51085872 369.41582354 202.51808167 366.66511536 C202.53188078 360.02551799 202.52455863 353.38611321 202.50940608 346.74652532 C202.49238583 338.98783136 202.49577609 331.22918325 202.49950016 323.47047635 C202.50535402 309.613824 202.49130348 295.75726303 202.46655273 281.90063477 C202.44262535 268.50313902 202.43555712 255.10576524 202.44604492 241.70825195 C202.45749242 227.0588915 202.45933815 212.4095872 202.44494683 197.76022738 C202.44342125 196.19393361 202.44190089 194.62763984 202.44038582 193.06134605 C202.439628 192.29103022 202.43887019 191.52071438 202.43808941 190.72705564 C202.43337719 185.33859036 202.43517598 179.95015043 202.43945122 174.56168556 C202.44441288 167.98352843 202.43823907 161.40548583 202.41855692 154.82735471 C202.40878611 151.48103735 202.40511236 148.13503562 202.41144943 144.78868866 C202.47712668 105.10670976 193.13930686 71.25970805 165 42 C136.58197839 13.99344487 96.88345015 3.22276382 57.9296875 2.71875 C56.24892624 2.69113586 56.24892624 2.69113586 54.53421021 2.66296387 C50.98118841 2.60477685 47.42812052 2.55178206 43.875 2.5 C29.22670435 2.28458389 14.61522118 2.05993155 0 1 C0 0.67 0 0.34 0 0 Z " fill="#FA6018" transform="translate(885,209)"/>
<path d="M0 0 C9.16309766 -0.04660734 18.3261537 -0.08201209 27.4893446 -0.10362434 C31.74546218 -0.11400391 36.00149788 -0.12805485 40.25756836 -0.15087891 C44.37488406 -0.17281741 48.49212165 -0.18461228 52.60949135 -0.18975449 C54.17014099 -0.19341294 55.73078699 -0.20055534 57.29140282 -0.21146011 C65.70148474 -0.26781861 73.8113563 0.00718386 82.11982727 1.52053833 C86.17961966 2.196371 90.23819033 2.4306698 94.34375 2.65625 C97.19612262 3.02538057 99.3560855 3.88849344 102 5 C103.97118318 5.53060113 105.95108964 6.02960167 107.9375 6.5 C114.14144702 7.9729371 119.81537252 9.77333002 125.5 12.6875 C128.93467915 14.44577992 132.37078544 16.18711154 135.85546875 17.84375 C136.81259766 18.30454956 136.81259766 18.30454956 137.7890625 18.7746582 C139.6107629 19.65060185 141.43616574 20.51883289 143.26171875 21.38671875 C146 23 146 23 147 26 C147.99 25.67 148.98 25.34 150 25 C150.70125 25.9075 151.4025 26.815 152.125 27.75 C154.71246866 30.87104271 157.59010435 32.79777573 161 35 C162.70779973 36.62449243 164.37550757 38.29220027 166 40 C167.2065625 41.2065625 167.2065625 41.2065625 168.4375 42.4375 C169.283125 43.283125 170.12875 44.12875 171 45 C171.54398438 45.50917969 172.08796875 46.01835937 172.6484375 46.54296875 C174.1532639 47.97361357 175.58209114 49.48316727 177 51 C177 51.99 177 52.98 177 54 C177.66 54 178.32 54 179 54 C179.0825 54.61875 179.165 55.2375 179.25 55.875 C179.78648121 58.15723303 179.78648121 58.15723303 181.875 59 C182.57625 59.33 183.2775 59.66 184 60 C186.90389379 63.31873576 187 64.6720911 187 69 C187.66 69 188.32 69 189 69 C190.33333333 71.66666667 191.66666667 74.33333333 193 77 C193.39445312 77.70640625 193.78890625 78.4128125 194.1953125 79.140625 C194.46085937 79.75421875 194.72640625 80.3678125 195 81 C194.67 81.66 194.34 82.32 194 83 C194.66 83 195.32 83 196 83 C200.22181929 93.42563771 202.99084823 102.60021889 203.75390625 113.8125 C203.76692468 115.97479911 203.76692468 115.97479911 205 117 C205.07179964 118.51928038 205.08392007 120.04167482 205.0625 121.5625 C205.05347656 122.38878906 205.04445313 123.21507812 205.03515625 124.06640625 C205.02355469 124.70449219 205.01195312 125.34257812 205 126 C204.67 126 204.34 126 204 126 C203.67 124.35 203.34 122.7 203 121 C202.67 121 202.34 121 202 121 C201.85304688 119.83726562 201.70609375 118.67453125 201.5546875 117.4765625 C197.022124 84.15467234 180.83908558 52.91581326 153.765625 32.29248047 C125.52077735 11.61656462 92.61162199 3.16749162 57.9296875 2.71875 C56.24892624 2.69113586 56.24892624 2.69113586 54.53421021 2.66296387 C50.98118841 2.60477685 47.42812052 2.55178206 43.875 2.5 C29.22670435 2.28458389 14.61522118 2.05993155 0 1 C0 0.67 0 0.34 0 0 Z " fill="#E87D25" transform="translate(885,209)"/>
<path d="M0 0 C0.99 0.33 1.98 0.66 3 1 C2.53851563 1.51304687 2.07703125 2.02609375 1.6015625 2.5546875 C-17.67524451 25.18398269 -26.13124849 54.39458341 -26.15821838 83.71217346 C-26.16315636 84.86325795 -26.16809434 86.01434243 -26.17318195 87.20030826 C-26.18849069 91.04182196 -26.19689958 94.88331902 -26.20532227 98.72485352 C-26.21436632 101.48477032 -26.22487379 104.2446811 -26.23532104 107.0045929 C-26.25702 112.93853125 -26.27518834 118.87247187 -26.29092598 124.80642891 C-26.31368482 133.38582501 -26.34181914 141.96519694 -26.37124526 150.54457247 C-26.41884766 164.46565805 -26.46213164 178.38675356 -26.50268555 192.30786133 C-26.54207796 205.8270749 -26.58351311 219.34627968 -26.62768555 232.86547852 C-26.63040982 233.69947277 -26.63313409 234.53346702 -26.63594092 235.39273382 C-26.64962101 239.57683817 -26.66334116 243.76094239 -26.67708123 247.94504654 C-26.79093044 282.63001277 -26.89776521 317.31499766 -27 352 C-27.33 352 -27.66 352 -28 352 C-28.15037709 315.90520983 -28.29540699 279.81040215 -28.4332476 243.71556189 C-28.44951894 239.45596363 -28.46583463 235.19636555 -28.48217773 230.93676758 C-28.48543066 230.08874454 -28.48868358 229.24072149 -28.49203508 228.36700078 C-28.5448384 214.6289976 -28.60123619 200.8910114 -28.6589582 187.15302811 C-28.71808948 173.06063285 -28.77336762 158.96822629 -28.82505554 144.87580174 C-28.85708142 136.17734328 -28.89212651 127.47890767 -28.93101191 118.78047713 C-28.95737547 112.81875769 -28.98000236 106.85703144 -28.99967117 100.89528618 C-29.01113644 97.45372141 -29.02426803 94.0121839 -29.04183006 90.57064438 C-29.0600022 86.84143246 -29.07194513 83.11225149 -29.08229065 79.38301086 C-29.08909444 78.29254576 -29.09589823 77.20208065 -29.10290819 76.07857114 C-29.10440054 75.07933155 -29.10589289 74.08009197 -29.10743046 73.0505724 C-29.11084794 72.18974641 -29.11426542 71.32892042 -29.11778647 70.44200879 C-28.99360684 67.86745369 -28.56026193 65.51334787 -28 63 C-27.77441406 61.83726562 -27.54882812 60.67453125 -27.31640625 59.4765625 C-27.06761719 58.20554687 -26.81882812 56.93453125 -26.5625 55.625 C-26.19318359 53.72621094 -26.19318359 53.72621094 -25.81640625 51.7890625 C-24.80577323 47.09856477 -23.51676091 42.55028272 -22 38 C-21.34 38 -20.68 38 -20 38 C-19.87625 36.9275 -19.7525 35.855 -19.625 34.75 C-19.06733638 31.40401825 -18.5116821 29.88876236 -17 27 C-16.54882812 25.95585937 -16.09765625 24.91171875 -15.6328125 23.8359375 C-15.13523437 22.69382812 -14.63765625 21.55171875 -14.125 20.375 C-13.63257813 19.22773438 -13.14015625 18.08046875 -12.6328125 16.8984375 C-10.90414697 13.8298494 -10.12126607 13.29561988 -7 12 C-6.31974363 10.00458132 -5.65509503 8.00382009 -5 6 C-3.46330937 3.84375474 -1.78167221 1.96921666 0 0 Z " fill="#795B27" transform="translate(474,260)"/>
<path d="M0 0 C0.33 0 0.66 0 1 0 C1.06058594 0.95261719 1.12117188 1.90523438 1.18359375 2.88671875 C1.26738281 4.14097656 1.35117188 5.39523437 1.4375 6.6875 C1.51871094 7.92886719 1.59992188 9.17023438 1.68359375 10.44921875 C1.8989055 13.82645036 1.8989055 13.82645036 2.5625 16.37109375 C3.23229121 20.39582127 2.8234396 24.31727634 2.5625 28.375 C2.11283532 36.42042906 1.88466828 44.44181413 1.875 52.5 C1.87056885 53.47243652 1.8661377 54.44487305 1.86157227 55.44677734 C1.86342529 56.36152832 1.86527832 57.2762793 1.8671875 58.21875 C1.86831543 59.02248047 1.86944336 59.82621094 1.87060547 60.65429688 C1.9409252 63.06230796 1.9409252 63.06230796 2.57080078 65.61132812 C3 68 3 68 2 71 C1.90842199 73.88511996 1.87403553 76.74563781 1.88647461 79.63061523 C1.88632858 80.51220306 1.88618256 81.39379089 1.8860321 82.30209351 C1.8867296 85.22095182 1.89451662 88.13974656 1.90234375 91.05859375 C1.90420913 93.08496567 1.90563247 95.11133804 1.90663147 97.13771057 C1.91045234 102.47748048 1.92027572 107.81722325 1.93133545 113.15698242 C1.94153935 118.58707311 1.94613207 124.01716812 1.95117188 129.44726562 C1.95997428 138.21840723 1.97232577 146.98953548 1.9888916 155.76066589 C1.99939509 161.33417371 1.99865338 166.90746158 1.98413086 172.48095703 C1.96812274 179.00093367 1.9565522 185.52090467 1.94818783 192.04089546 C1.94295174 195.98414334 1.93583332 199.92736987 1.92456055 203.87060547 C1.91372023 207.68773484 1.9077215 211.50484358 1.90512276 215.32198715 C1.90327253 216.77728476 1.89965958 218.23258122 1.89426994 219.68787003 C1.88704318 221.71784616 1.8865918 223.74784304 1.88647461 225.77783203 C1.884254 226.9338089 1.88203339 228.08978577 1.87974548 229.28079224 C1.81358938 231.96656234 1.81358938 231.96656234 3 234 C2.67796711 236.33491978 2.34252882 238.66799881 2 241 C1.93274502 243.56560945 1.91479556 246.13282837 1.9375 248.69921875 C1.94128662 249.41551956 1.94507324 250.13182037 1.94897461 250.86982727 C1.96510565 253.89758727 1.99309917 256.92520518 2.02050781 259.95288086 C2.09542017 269.03009004 1.98078347 277.95949699 1 287 C0.67 287 0.34 287 0 287 C0 192.29 0 97.58 0 0 Z " fill="#FB650C" transform="translate(1088,327)"/>
<path d="M0 0 C0.33 0 0.66 0 1 0 C0.87773094 5.86891502 -0.96080676 8.77741972 -4.72265625 13.203125 C-12.1906133 19.09550964 -20.79472356 18.42358847 -29.84335327 18.3742218 C-31.3585121 18.37696446 -32.87366902 18.38101832 -34.38882124 18.38626546 C-38.53993637 18.39683023 -42.69083547 18.38873778 -46.84194112 18.37751496 C-51.32314429 18.36866126 -55.80431956 18.37711967 -60.28552246 18.38337708 C-69.05759745 18.39285889 -77.82959011 18.3862714 -86.60165899 18.37411413 C-96.81213815 18.36049028 -107.02259773 18.36213222 -117.23308368 18.36424746 C-135.44398025 18.3674362 -153.65483769 18.35577435 -171.86572266 18.33618164 C-189.54932852 18.31716116 -207.23288854 18.31009861 -224.91650391 18.31567383 C-244.16805125 18.32172541 -263.41957844 18.32156726 -282.6711241 18.310188 C-284.7217958 18.30898067 -286.77246749 18.30777469 -288.82313919 18.30657005 C-289.83216222 18.30596651 -290.84118525 18.30536298 -291.88078474 18.30474115 C-299.00431021 18.30085572 -306.1278282 18.30125797 -313.25135422 18.3031559 C-321.92333548 18.30527327 -330.59527651 18.30008818 -339.26724641 18.28554235 C-343.69480027 18.27827705 -348.12229542 18.2742395 -352.54985428 18.27878571 C-356.59717811 18.2828406 -360.64438032 18.27775858 -364.69168563 18.26515963 C-366.16118689 18.26221436 -367.6306995 18.26268968 -369.10019796 18.26680271 C-371.08689418 18.27186148 -373.07361135 18.26357055 -375.0602932 18.25447559 C-376.1670183 18.25360882 -377.27374341 18.25274204 -378.41400564 18.251849 C-381 18 -381 18 -383 16 C-381.87804633 16.00113916 -381.87804633 16.00113916 -380.73342693 16.00230134 C-336.37496529 16.04708489 -292.01650612 16.08138697 -247.65802639 16.10213066 C-242.32849542 16.10463199 -236.9989645 16.10722064 -231.66943359 16.10986328 C-230.60844708 16.1103879 -229.54746057 16.11091252 -228.45432295 16.11145304 C-211.28867947 16.12014896 -194.12304942 16.13591446 -176.9574139 16.15430559 C-159.33593376 16.17302726 -141.71446064 16.18412152 -124.09297097 16.18817699 C-113.22491528 16.19091734 -102.35689758 16.19956381 -91.48885359 16.21583293 C-84.0300894 16.2264278 -76.57134477 16.22959497 -69.11257361 16.22700275 C-64.81319748 16.22572536 -60.51388758 16.22764461 -56.21452332 16.23841095 C-52.26988771 16.2482163 -48.32536225 16.24858818 -44.38072135 16.24179779 C-42.96190607 16.2409598 -41.54308362 16.2434348 -40.12428223 16.24976636 C-21.57064992 16.75907315 -21.57064992 16.75907315 -4.75 10.3125 C-2.52838134 7.37678963 -1.87038552 4.54849481 -1 1 C-0.67 0.67 -0.34 0.34 0 0 Z " fill="#C16E09" transform="translate(965,372)"/>
<path d="M0 0 C1.79031209 0.00374368 3.58062627 0.00658421 5.37094116 0.00857544 C10.0166621 0.0161055 14.66225212 0.0356586 19.30792236 0.0579834 C24.07505524 0.07867488 28.84220988 0.08762627 33.609375 0.09765625 C42.9141191 0.11891785 52.21876729 0.15292023 61.5234375 0.1953125 C61.5234375 0.5253125 61.5234375 0.8553125 61.5234375 1.1953125 C51.90319916 1.99051146 42.3639953 2.3627178 32.7109375 2.44140625 C31.3263276 2.45699331 29.94172465 2.47320818 28.55712891 2.49000549 C22.76652006 2.55943165 16.97585075 2.62019257 11.18505859 2.67211914 C-19.86856832 2.64763315 -19.86856832 2.64763315 -50.4765625 7.2578125 C-51.36698242 7.46841309 -52.25740234 7.67901367 -53.17480469 7.89599609 C-74.05021953 13.15326408 -92.4962538 23.14159403 -109.4765625 36.1953125 C-109.1465625 34.8753125 -108.8165625 33.5553125 -108.4765625 32.1953125 C-107.1565625 31.8653125 -105.8365625 31.5353125 -104.4765625 31.1953125 C-104.4765625 30.5353125 -104.4765625 29.8753125 -104.4765625 29.1953125 C-102.796875 27.90625 -102.796875 27.90625 -100.6015625 26.5703125 C-99.88226563 26.12429687 -99.16296875 25.67828125 -98.421875 25.21875 C-96.4765625 24.1953125 -96.4765625 24.1953125 -94.4765625 24.1953125 C-94.4765625 23.5353125 -94.4765625 22.8753125 -94.4765625 22.1953125 C-93.6721875 21.8034375 -92.8678125 21.4115625 -92.0390625 21.0078125 C-89.38724998 19.65864473 -86.85471799 18.25290671 -84.2890625 16.7578125 C-79.22469439 13.92346867 -73.96357284 12.04281743 -68.4765625 10.1953125 C-67.66703125 9.90527344 -66.8575 9.61523438 -66.0234375 9.31640625 C-61.49275782 7.72142208 -57.25489524 6.70364577 -52.4765625 6.1953125 C-52.4765625 5.5353125 -52.4765625 4.8753125 -52.4765625 4.1953125 C-51.48076172 4.10443359 -51.48076172 4.10443359 -50.46484375 4.01171875 C-49.58183594 3.92792969 -48.69882812 3.84414062 -47.7890625 3.7578125 C-46.91894531 3.67660156 -46.04882812 3.59539062 -45.15234375 3.51171875 C-42.55050272 3.24443162 -42.55050272 3.24443162 -40.3152771 2.74118042 C-26.97461448 0.17585041 -13.53437658 -0.08495374 0 0 Z " fill="#5B815F" transform="translate(601.4765625,208.8046875)"/>
<path d="M0 0 C3.57510089 1.28979121 6.2997323 2.82395184 9.3125 5.125 C13.7236376 8.29943186 18.25647126 10.75372953 23.125 13.125 C39.2687014 21.03181286 39.2687014 21.03181286 42 28 C42.41834888 30.86329999 42.43767322 33.68535915 42.43237305 36.57568359 C42.44766052 37.83520844 42.44766052 37.83520844 42.46325684 39.12017822 C42.49331192 41.87966652 42.50264128 44.63880724 42.51171875 47.3984375 C42.52857099 49.318015 42.54672197 51.23758151 42.56611633 53.15713501 C42.6135632 58.19749515 42.64340697 63.23781068 42.66955566 68.27832031 C42.69938796 73.42652188 42.74590915 78.57456986 42.79101562 83.72265625 C42.87698832 93.81502374 42.94436049 103.90742289 43 114 C42.01 113.34 41.02 112.68 40 112 C39.68915475 109.27174909 39.57298367 106.76602318 39.58349609 104.03369141 C39.57061806 102.79931084 39.57061806 102.79931084 39.55747986 101.53999329 C39.5323177 98.81043053 39.52803122 96.08123086 39.5234375 93.3515625 C39.50913381 91.4582711 39.49337795 89.56499016 39.47622681 87.67172241 C39.43427983 82.6788542 39.40934908 77.68605073 39.38873291 72.6930542 C39.35298936 64.7076283 39.29190917 56.72236261 39.23024368 48.73710251 C39.21115064 45.94522893 39.19941999 43.15339795 39.18881226 40.36148071 C39.17859874 38.64935211 39.1682407 36.93722437 39.15771484 35.22509766 C39.15667252 34.44780807 39.15563019 33.67051849 39.15455627 32.86967468 C39.12854807 29.44626952 39.07927736 26.271969 38 23 C37.01 23 36.02 23 35 23 C35 22.34 35 21.68 35 21 C34.30261719 20.89816406 33.60523438 20.79632812 32.88671875 20.69140625 C29.53175079 19.88784829 26.8636675 18.54078429 23.8125 16.9375 C20.08952847 14.76710048 20.08952847 14.76710048 16 14 C16 13.01 16 12.02 16 11 C14.9790625 10.6596875 14.9790625 10.6596875 13.9375 10.3125 C10.80836205 8.91437453 8.36076623 7.18909099 5.6484375 5.12109375 C3.87939685 3.80867708 3.87939685 3.80867708 1 3 C0.67 2.01 0.34 1.02 0 0 Z " fill="#E7682A" transform="translate(496,703)"/>
<path d="M0 0 C3 0 3 0 4.6875 1.5625 C5.450625 2.366875 6.21375 3.17125 7 4 C8.30371719 5.1558165 9.6171072 6.30077086 10.9375 7.4375 C14.09140727 10.17749337 17.08282127 13.00605341 20 16 C20.54011719 16.50660156 21.08023437 17.01320312 21.63671875 17.53515625 C23.14637005 18.96738953 24.57895504 20.47981237 26 22 C26 22.99 26 23.98 26 25 C26.66 25 27.32 25 28 25 C28.12375 25.928125 28.12375 25.928125 28.25 26.875 C28.78648121 29.15723303 28.78648121 29.15723303 30.875 30 C31.57625 30.33 32.2775 30.66 33 31 C35.90389379 34.31873576 36 35.6720911 36 40 C36.66 40 37.32 40 38 40 C39.33333333 42.66666667 40.66666667 45.33333333 42 48 C42.59167969 49.05960937 42.59167969 49.05960937 43.1953125 50.140625 C43.59363281 51.06101562 43.59363281 51.06101562 44 52 C43.505 52.99 43.505 52.99 43 54 C43.66 54 44.32 54 45 54 C49.22181929 64.42563771 51.99084823 73.60021889 52.75390625 84.8125 C52.76692468 86.97479911 52.76692468 86.97479911 54 88 C54.07179964 89.51928038 54.08392007 91.04167482 54.0625 92.5625 C54.05347656 93.38878906 54.04445313 94.21507812 54.03515625 95.06640625 C54.02355469 95.70449219 54.01195312 96.34257812 54 97 C53.67 97 53.34 97 53 97 C52.67 95.35 52.34 93.7 52 92 C51.67 92 51.34 92 51 92 C50.85304688 90.83726562 50.70609375 89.67453125 50.5546875 88.4765625 C45.89835977 54.24479915 29.40387394 25.10086036 2.640625 3.23046875 C1.76921875 2.49441406 0.8978125 1.75835937 0 1 C0 0.67 0 0.34 0 0 Z " fill="#F77418" transform="translate(1036,238)"/>
<path d="M0 0 C0.99 0.33 1.98 0.66 3 1 C2.53851563 1.51304687 2.07703125 2.02609375 1.6015625 2.5546875 C-18.87423834 26.59149718 -25.63692554 56.27576906 -26.5625 87.0625 C-26.60579628 88.41863016 -26.64941366 89.77475011 -26.69335938 91.13085938 C-26.7987211 94.42048671 -26.90084952 97.71018059 -27 101 C-29.4239809 97.36402866 -29.24516538 95.64573325 -29.23046875 91.3203125 C-29.23001053 90.67053436 -29.22955231 90.02075623 -29.2290802 89.35128784 C-29.22606258 87.97782565 -29.21819085 86.60436674 -29.20581055 85.23095703 C-29.18762628 83.13952355 -29.18530053 81.04853534 -29.18554688 78.95703125 C-29.14494337 67.91800445 -29.14494337 67.91800445 -28 63 C-27.77441406 61.83726562 -27.54882812 60.67453125 -27.31640625 59.4765625 C-27.06761719 58.20554687 -26.81882812 56.93453125 -26.5625 55.625 C-26.19318359 53.72621094 -26.19318359 53.72621094 -25.81640625 51.7890625 C-24.80577323 47.09856477 -23.51676091 42.55028272 -22 38 C-21.34 38 -20.68 38 -20 38 C-19.87625 36.9275 -19.7525 35.855 -19.625 34.75 C-19.06733638 31.40401825 -18.5116821 29.88876236 -17 27 C-16.54882812 25.95585937 -16.09765625 24.91171875 -15.6328125 23.8359375 C-15.13523437 22.69382812 -14.63765625 21.55171875 -14.125 20.375 C-13.63257813 19.22773438 -13.14015625 18.08046875 -12.6328125 16.8984375 C-10.90414697 13.8298494 -10.12126607 13.29561988 -7 12 C-6.31974363 10.00458132 -5.65509503 8.00382009 -5 6 C-3.46330937 3.84375474 -1.78167221 1.96921666 0 0 Z " fill="#587E60" transform="translate(474,260)"/>
<path d="M0 0 C0.79076935 -0.00014603 1.5815387 -0.00029205 2.39627075 -0.0004425 C4.99882796 0.00025177 7.60131278 0.00802139 10.20385742 0.01586914 C12.01275086 0.01773504 13.82164481 0.01915813 15.63053894 0.02015686 C20.3832642 0.02396845 25.13595873 0.03378714 29.88867188 0.04486084 C34.74177637 0.05510416 39.59488585 0.05966074 44.44799805 0.06469727 C53.96428756 0.07541064 63.48055431 0.09247074 72.99682617 0.11352539 C72.99682617 0.44352539 72.99682617 0.77352539 72.99682617 1.11352539 C62.87657223 1.94818359 52.79224467 2.33946525 42.64135742 2.50024414 C41.12155588 2.52598385 39.60175507 2.55176697 38.08195496 2.57759094 C34.92983842 2.63000504 31.77768904 2.67901649 28.62548828 2.72607422 C24.58588068 2.787075 20.54662521 2.86128529 16.50729847 2.93844891 C13.38391928 2.99592036 10.26044756 3.0442619 7.13687706 3.09003639 C5.646068 3.11341095 4.15530778 3.14015552 2.66462135 3.17035484 C0.59283453 3.21141815 -1.47874706 3.23964439 -3.55078125 3.26464844 C-5.31611458 3.2934333 -5.31611458 3.2934333 -7.11711121 3.32279968 C-10.00317383 3.11352539 -10.00317383 3.11352539 -13.00317383 1.11352539 C-8.66183289 0.04348566 -4.44272538 -0.02160143 0 0 Z " fill="#80844D" transform="translate(590.003173828125,208.886474609375)"/>
<path d="M0 0 C-0.33 0.99 -0.66 1.98 -1 3 C-1.804375 3.12375 -2.60875 3.2475 -3.4375 3.375 C-4.7059375 3.684375 -4.7059375 3.684375 -6 4 C-6.33 4.66 -6.66 5.32 -7 6 C-7.63292969 6.29003906 -8.26585937 6.58007812 -8.91796875 6.87890625 C-12.16527662 8.62745664 -12.9403798 11.03917857 -14.3125 14.3515625 C-15.5129234 18.97592084 -14.85573043 23.35565107 -14 28 C-13.88011719 28.74636719 -13.76023437 29.49273437 -13.63671875 30.26171875 C-13.42660156 30.83535156 -13.21648438 31.40898437 -13 32 C-12.01 32.33 -11.02 32.66 -10 33 C-8.6256709 34.29103643 -7.29103643 35.6256709 -6 37 C-5.34 37.66 -4.68 38.32 -4 39 C-6.78717889 38.91802415 -8.51752767 38.43764605 -10.59765625 36.55078125 C-16.07469922 30.34705445 -17.48098501 25.26231175 -17.30859375 17.0078125 C-16.77432101 11.80034407 -15.18040435 7.98218578 -11.28125 4.4375 C-7.63264037 1.71650299 -4.69075708 0 0 0 Z " fill="#907732" transform="translate(585,349)"/>
<path d="M0 0 C-1.97566188 1.97566188 -3.52337094 2.89579072 -6 4.125 C-6.70125 4.47820312 -7.4025 4.83140625 -8.125 5.1953125 C-10 6 -10 6 -12 6 C-12.13277344 6.63808594 -12.26554688 7.27617187 -12.40234375 7.93359375 C-12.57894531 8.75988281 -12.75554688 9.58617187 -12.9375 10.4375 C-13.11152344 11.26121094 -13.28554688 12.08492188 -13.46484375 12.93359375 C-14 15 -14 15 -15 16 C-15.73607327 21.7413715 -13.77201478 27.02919571 -11 32 C-9.09863482 33.70737696 -9.09863482 33.70737696 -7 35 C-6.01 35.66 -5.02 36.32 -4 37 C-5.485 37.495 -5.485 37.495 -7 38 C-11.28128847 35.58691014 -14.9076893 31.7777789 -16.5625 27.11328125 C-17.9841889 20.24601614 -18.08700603 12.94109096 -14.47265625 6.76171875 C-10.82850743 2.40227282 -5.82789442 -2.21195084 0 0 Z " fill="#A87B36" transform="translate(585,458)"/>
<path d="M0 0 C0.33 0 0.66 0 1 0 C1.08989013 4.49450658 0.79487727 8.58401515 0 13 C-0.15156708 14.49943149 -0.29698425 15.99949252 -0.4375 17.5 C-0.92124455 21.95789207 -2.14528896 25.7909007 -3.76171875 29.96875 C-5.16443182 33.63633148 -6.39019441 37.09724421 -7 41 C-9 38 -9 38 -8.42578125 34.83984375 C-8.06514224 33.53612525 -7.69324744 32.23548838 -7.3125 30.9375 C-5.40518072 23.9886022 -4.07390522 17.07096766 -3.0402832 9.94116211 C-2.48936772 6.30201619 -1.94759655 3.16276363 0 0 Z " fill="#FA6D25" transform="translate(1089,608)"/>
<path d="M0 0 C0.33 0 0.66 0 1 0 C1.33 27.06 1.66 54.12 2 82 C1.01 81.34 0.02 80.68 -1 80 C-1.25667989 77.39374357 -1.31953225 75.03235591 -1.2487793 72.42919922 C-1.23946381 71.64862152 -1.23014832 70.86804382 -1.22055054 70.06381226 C-1.18610352 67.47700187 -1.13022402 64.89111367 -1.07421875 62.3046875 C-1.04619423 60.51394631 -1.01950291 58.72318379 -0.99409485 56.93240356 C-0.92355063 52.21387502 -0.83484664 47.49585408 -0.74243164 42.77770996 C-0.65135964 37.96526292 -0.57736249 33.1525572 -0.50195312 28.33984375 C-0.35140106 18.89289616 -0.18167431 9.44639672 0 0 Z " fill="#E94001" transform="translate(537,735)"/>
<path d="M0 0 C4.39651612 0.31403687 7.31171946 1.34896035 10.609375 4.3515625 C14.13743318 8.53369889 15.81763251 13.23711424 16.375 18.625 C15.58501889 25.73482998 13.77739031 29.8454473 9 35 C8.34 34.67 7.68 34.34 7 34 C7.45375 33.62875 7.9075 33.2575 8.375 32.875 C12.65999253 27.93077785 13.2063784 20.32594653 13 14 C11.74686473 9.26330629 9.79920854 6.61979438 5.9375 3.625 C4.968125 3.08875 3.99875 2.5525 3 2 C2.01 1.34 1.02 0.68 0 0 Z " fill="#ED771B" transform="translate(951,458)"/>
<path d="M0 0 C3.47499033 0.61323359 6.45217644 1 10 1 C10 1.66 10 2.32 10 3 C9.02289062 2.93941406 8.04578125 2.87882813 7.0390625 2.81640625 C-9.62676612 1.83999262 -26.31346012 1.44934747 -43 1 C-43 0.67 -43 0.34 -43 0 C-39.25018589 -0.171025 -35.50012685 -0.33598736 -31.75 -0.5 C-30.70585938 -0.54769531 -29.66171875 -0.59539062 -28.5859375 -0.64453125 C-8.42133919 -1.51584105 -8.42133919 -1.51584105 0 0 Z " fill="#E66F11" transform="translate(964,210)"/>
<path d="M0 0 C0.33 0 0.66 0 1 0 C0.87692717 5.90749601 -0.91041265 9.00642716 -4.9921875 13.26171875 C-9.15229616 16.86336924 -12.67261203 18.04007802 -18.17578125 17.9453125 C-21.13541898 17.71577538 -24.05995569 17.40670613 -27 17 C-27 16.67 -27 16.34 -27 16 C-26.05898438 15.87882812 -25.11796875 15.75765625 -24.1484375 15.6328125 C-22.28058594 15.38144531 -22.28058594 15.38144531 -20.375 15.125 C-19.14523437 14.96257812 -17.91546875 14.80015625 -16.6484375 14.6328125 C-11.0081572 13.65451977 -6.55555654 12.698414 -3 8 C-2.25613932 5.69011685 -1.57809297 3.35684056 -1 1 C-0.67 0.67 -0.34 0.34 0 0 Z " fill="#EB791C" transform="translate(965,372)"/>
<path d="M0 0 C1.9194358 2.8791537 2.2835487 3.73872218 2.59765625 6.9765625 C2.71657227 8.10578125 2.71657227 8.10578125 2.83789062 9.2578125 C2.91201172 10.03898437 2.98613281 10.82015625 3.0625 11.625 C3.12380983 16.72195959 3.12380983 16.72195959 5 21 C5.07179964 22.51928038 5.08392007 24.04167482 5.0625 25.5625 C5.05347656 26.38878906 5.04445313 27.21507812 5.03515625 28.06640625 C5.02355469 28.70449219 5.01195312 29.34257812 5 30 C4.67 30 4.34 30 4 30 C3.67 28.35 3.34 26.7 3 25 C2.67 25 2.34 25 2 25 C1.4649366 21.773025 0.94949467 18.54320875 0.4375 15.3125 C0.21030273 13.94448242 0.21030273 13.94448242 -0.02148438 12.54882812 C-0.16005859 11.66259766 -0.29863281 10.77636719 -0.44140625 9.86328125 C-0.57232666 9.05157471 -0.70324707 8.23986816 -0.83813477 7.40356445 C-1.01654157 4.75437143 -0.62608968 2.57036819 0 0 Z " fill="#FA7A20" transform="translate(1085,305)"/>
<path d="M0 0 C3.08508093 0.70361495 5.65600567 1.60736821 8.5625 2.8125 C11.2167267 3.54315791 13.88314647 4.1767212 16.5625 4.8125 C13.30002069 6.8106048 11.50625007 6.94126604 7.796875 6.1328125 C6.90742187 5.94589844 6.01796875 5.75898438 5.1015625 5.56640625 C3.72097656 5.25509766 3.72097656 5.25509766 2.3125 4.9375 C1.37664063 4.73769531 0.44078125 4.53789062 -0.5234375 4.33203125 C-2.83101866 3.83754957 -5.13514727 3.33068793 -7.4375 2.8125 C-3.8671875 -0.2109375 -3.8671875 -0.2109375 0 0 Z " fill="#EF7E28" transform="translate(978.4375,211.1875)"/>
<path d="M0 0 C3.06434249 2.87862476 5.70324855 5.83932327 8.25 9.1875 C12.21508267 14.38674747 16.57374864 19.1923483 21 24 C20.34 24.33 19.68 24.66 19 25 C15.47525326 23.82508442 15.1921138 23.12697063 13.3125 20.0625 C10.43155792 15.5353053 7.19094196 11.45902418 3.734375 7.359375 C1.98153402 4.97487961 0.96771626 2.78465292 0 0 Z " fill="#CF5B21" transform="translate(467,671)"/>
<path d="M0 0 C0.33 0 0.66 0 1 0 C1.0825 0.94875 1.165 1.8975 1.25 2.875 C2.04596039 8.36824777 3.6318526 14.96880343 7.94921875 18.671875 C8.62597656 19.11015625 9.30273438 19.5484375 10 20 C10.99 20.66 11.98 21.32 13 22 C12.01 22.33 11.02 22.66 10 23 C4.75174096 20.04189036 1.62910224 15.74977262 0 10 C-0.21590656 6.64854142 -0.1821049 3.352079 0 0 Z " fill="#A9742A" transform="translate(568,473)"/>
<path d="M0 0 C3.71323642 1.28504785 7.07009354 3.1300875 9.9375 5.8125 C11.39493702 8.81310564 11.68288633 11.70201785 12 15 C11.01 15.495 11.01 15.495 10 16 C9.34 12.7 8.68 9.4 8 6 C7.01 6 6.02 6 5 6 C5 5.34 5 4.68 5 4 C3.824375 3.814375 3.824375 3.814375 2.625 3.625 C0 3 0 3 -2 1 C-1.34 0.67 -0.68 0.34 0 0 Z " fill="#E76223" transform="translate(526,720)"/>
<path d="M0 0 C4.89620131 0.45546059 7.51102953 1.51102953 11 5 C14.11412492 9.17921651 15.51485749 12.72271069 15 18 C14.34 18 13.68 18 13 18 C12.87882813 17.39671875 12.75765625 16.7934375 12.6328125 16.171875 C12.46523438 15.37265625 12.29765625 14.5734375 12.125 13.75 C11.88136719 12.56664062 11.88136719 12.56664062 11.6328125 11.359375 C11.00849925 9.03168856 10.15161458 7.10968048 9 5 C8.01 5 7.02 5 6 5 C4.5 3.625 4.5 3.625 3 2 C2.01 1.34 1.02 0.68 0 0 Z " fill="#ED7719" transform="translate(951,350)"/>
<path d="M0 0 C8.26845246 -0.39373583 14.05545203 2.95672985 21 7 C17.55959697 8.14680101 16.99729616 7.87124738 13.76953125 6.56640625 C12.96708984 6.24736328 12.16464844 5.92832031 11.33789062 5.59960938 C10.50451172 5.25736328 9.67113281 4.91511719 8.8125 4.5625 C7.96751953 4.22412109 7.12253906 3.88574219 6.25195312 3.53710938 C4.16443784 2.69974448 2.08083591 1.85379803 0 1 C0 0.67 0 0.34 0 0 Z " fill="#F17317" transform="translate(993,217)"/>
<path d="M0 0 C2.04824091 1.84341682 3.27423652 3.46721777 4.6875 5.875 C7.57165703 9.77250949 10.80223898 11.69734468 15 14 C13.68 14.33 12.36 14.66 11 15 C10.67 14.34 10.34 13.68 10 13 C8.6846659 12.29848848 7.34882408 11.63474075 6 11 C3 9 3 9 2 6 C1.34 5.67 0.68 5.34 0 5 C0 3.35 0 1.7 0 0 Z " fill="#F35718" transform="translate(539,818)"/>
<path d="M0 0 C0.33 0 0.66 0 1 0 C1.33 8.91 1.66 17.82 2 27 C1.01 26.34 0.02 25.68 -1 25 C-1.2487793 22.47802734 -1.2487793 22.47802734 -1.07421875 19.3359375 C-1.01943359 18.21445312 -0.96464844 17.09296875 -0.90820312 15.9375 C-0.83537109 14.761875 -0.76253906 13.58625 -0.6875 12.375 C-0.62626953 11.19164062 -0.56503906 10.00828125 -0.50195312 8.7890625 C-0.34832729 5.85835421 -0.18042619 2.9291608 0 0 Z " fill="#EE490C" transform="translate(537,790)"/>
<path d="M0 0 C1.16144531 0.00902344 2.32289063 0.01804688 3.51953125 0.02734375 C4.39996094 0.03894531 5.28039062 0.05054688 6.1875 0.0625 C6.1875 0.7225 6.1875 1.3825 6.1875 2.0625 C3.75054285 2.28431406 1.313974 2.49041119 -1.125 2.6875 C-2.16043945 2.78417969 -2.16043945 2.78417969 -3.21679688 2.8828125 C-7.0684972 3.18052847 -8.50104416 3.27013723 -11.8125 1.0625 C-7.81454108 0.10630267 -4.10446078 -0.0414592 0 0 Z " fill="#718458" transform="translate(588.8125,208.9375)"/>
<path d="M0 0 C-0.33 0.99 -0.66 1.98 -1 3 C-1.804375 3.12375 -2.60875 3.2475 -3.4375 3.375 C-4.7059375 3.684375 -4.7059375 3.684375 -6 4 C-6.33 4.66 -6.66 5.32 -7 6 C-8.64363134 6.72159424 -10.31050386 7.39351421 -12 8 C-12 7.01 -12 6.02 -12 5 C-8.0728402 2.03281259 -5.00817882 0 0 0 Z " fill="#958041" transform="translate(585,349)"/>
<path d="M0 0 C0.66 0.33 1.32 0.66 2 1 C-1.96 4.96 -5.92 8.92 -10 13 C-10.33 12.01 -10.66 11.02 -11 10 C-9.68 9.34 -8.36 8.68 -7 8 C-7 7.34 -7 6.68 -7 6 C-6.34 6 -5.68 6 -5 6 C-4.731875 5.38125 -4.46375 4.7625 -4.1875 4.125 C-3 2 -3 2 0 0 Z " fill="#4F7E61" transform="translate(489,245)"/>
<path d="M0 0 C-3.53980214 3.40295412 -7.06652107 3.5325645 -11.75 3.6875 C-12.79607422 3.73874023 -12.79607422 3.73874023 -13.86328125 3.79101562 C-15.57497108 3.87308295 -17.2874576 3.93822919 -19 4 C-19 3.34 -19 2.68 -19 2 C-16.77149723 1.66225668 -14.54216533 1.3299813 -12.3125 1 C-10.45044922 0.7215625 -10.45044922 0.7215625 -8.55078125 0.4375 C-5.64113629 0.07899589 -2.92299978 -0.08942256 0 0 Z " fill="#F95A12" transform="translate(987,728)"/>
<path d="M0 0 C1.05078125 1.87890625 1.05078125 1.87890625 2 4 C1.1875 5.9375 1.1875 5.9375 0 8 C-0.37668344 9.65740715 -0.72057545 11.32345271 -1 13 C-3 10 -3 10 -2.5390625 7.51953125 C-2.23742188 6.62621094 -1.93578125 5.73289062 -1.625 4.8125 C-1.32851562 3.91144531 -1.03203125 3.01039063 -0.7265625 2.08203125 C-0.48679687 1.39496094 -0.24703125 0.70789063 0 0 Z " fill="#FA681F" transform="translate(1083,636)"/>
<path d="M0 0 C0 0.99 0 1.98 0 3 C-1.97946592 4.36363208 -3.9819245 5.69418644 -6 7 C-7.83300909 9.10575643 -7.83300909 9.10575643 -9 11 C-9.66 10.67 -10.32 10.34 -11 10 C-8.60677759 4.76482597 -4.83901623 2.70111357 0 0 Z " fill="#F76721" transform="translate(614,795)"/>
<path d="M0 0 C0.66 0.33 1.32 0.66 2 1 C-3.0940919 6.88183807 -3.0940919 6.88183807 -6.875 7.375 C-7.57625 7.25125 -8.2775 7.1275 -9 7 C-6.03716687 4.61327331 -3.05729491 2.2646629 0 0 Z " fill="#F55612" transform="translate(578,826)"/>
<path d="M0 0 C-3.45214853 2.30143236 -4.23479324 2.13833854 -8.1875 1.625 C-9.53908203 1.45871094 -9.53908203 1.45871094 -10.91796875 1.2890625 C-11.60503906 1.19367187 -12.29210937 1.09828125 -13 1 C-13 0.67 -13 0.34 -13 0 C-4.57142857 -1.28571429 -4.57142857 -1.28571429 0 0 Z " fill="#F86F30" transform="translate(572,833)"/>
<path d="M0 0 C0.66 0.66 1.32 1.32 2 2 C-0.97 3.32 -3.94 4.64 -7 6 C-7 5.01 -7 4.02 -7 3 C-4.69 2.01 -2.38 1.02 0 0 Z " fill="#63886B" transform="translate(521,224)"/>
<path d="M0 0 C0.33 0.99 0.66 1.98 1 3 C-0.65 4.32 -2.3 5.64 -4 7 C-4 4 -4 4 -2 1.8125 C-1.34 1.214375 -0.68 0.61625 0 0 Z " fill="#F86726" transform="translate(584,820)"/>
<path d="M0 0 C0.66 0.33 1.32 0.66 2 1 C0.35 2.98 -1.3 4.96 -3 7 C-3.99 6.67 -4.98 6.34 -6 6 C-4.02 4.02 -2.04 2.04 0 0 Z " fill="#F6570F" transform="translate(604,802)"/>
<path d="M0 0 C0.99 0 1.98 0 3 0 C1.70700306 2.88437779 0.34058637 4.87219421 -2 7 C-2.66 6.67 -3.32 6.34 -4 6 C-3.525625 5.38125 -3.05125 4.7625 -2.5625 4.125 C-0.97582559 2.09294454 -0.97582559 2.09294454 0 0 Z " fill="#F86F28" transform="translate(633,775)"/>
</svg>
